<?xml version="1.0" encoding="UTF-8" standalone="no"?><!-- Generator: Gravit.io --><svg xmlns="http://www.w3.org/2000/svg" xmlns:xlink="http://www.w3.org/1999/xlink" style="isolation:isolate" viewBox="0 0 512 512" width="512pt" height="512pt"><defs><clipPath id="_clipPath_EpyDCKu5OZLRt0sjLPM7UCGxdnWYcQCj"><rect width="512" height="512"/></clipPath></defs><g clip-path="url(#_clipPath_EpyDCKu5OZLRt0sjLPM7UCGxdnWYcQCj)"><rect width="512" height="512" style="fill:rgb(34,34,34)" fill-opacity="0"/><defs><linearGradient id="_lgradient_0" x1="0.14644660940672632" y1="0.8535533905932738" x2="0.8535533905932737" y2="0.14644660940672616"><stop offset="0%" style="stop-color:#222222"/><stop offset="100%" style="stop-color:#333333"/></linearGradient></defs><path d="M 256 26 L 256 26 C 382.94 26 486 129.06 486 256 L 486 256 C 486 382.94 382.94 486 256 486 L 256 486 C 129.06 486 26 382.94 26 256 L 26 256 C 26 129.06 129.06 26 256 26 Z" style="stroke:none;fill:url(#_lgradient_0);stroke-miterlimit:10;"/><path d="M 256 26 L 256 26 C 382.94 26 486 129.06 486 256 L 486 256 C 486 382.94 382.94 486 256 486 L 256 486 C 129.06 486 26 382.94 26 256 L 26 256 C 26 129.06 129.06 26 256 26 Z" style="fill:none;stroke:#000000;stroke-width:2;stroke-linecap:square;stroke-miterlimit:2;"/><defs><filter id="2CxP8TnwfhAR5iWt80LcOx7TiSvrdwqI" x="-200%" y="-200%" width="400%" height="400%" filterUnits="objectBoundingBox" color-interpolation-filters="sRGB"><feGaussianBlur xmlns="http://www.w3.org/2000/svg" in="SourceGraphic" stdDeviation="2.146804531419514"/><feOffset xmlns="http://www.w3.org/2000/svg" dx="0" dy="0" result="pf_100_offsetBlur"/><feFlood xmlns="http://www.w3.org/2000/svg" flood-color="#000000" flood-opacity="0.65"/><feComposite xmlns="http://www.w3.org/2000/svg" in2="pf_100_offsetBlur" operator="in" result="pf_100_dropShadow"/><feBlend xmlns="http://www.w3.org/2000/svg" in="SourceGraphic" in2="pf_100_dropShadow" mode="normal"/></filter></defs><g filter="url(#2CxP8TnwfhAR5iWt80LcOx7TiSvrdwqI)"><path d=" M 229.19 302.043 L 229.19 366.662 L 282.085 366.662 L 282.085 301.907 C 273.299 302.776 264.474 303.22 255.64 303.24 C 246.806 303.245 237.98 302.845 229.19 302.043 Z  M 229.19 297.021 L 229.19 269.893 C 239.366 270.735 249.63 271.167 259.944 271.167 C 267.22 271.167 274.612 270.926 282.085 270.442 L 282.085 296.873 C 273.12 297.778 264.262 298.235 255.638 298.235 C 246.706 298.235 237.884 297.825 229.19 297.021 Z  M 229.171 264.873 Q 228.832 241.476 222.623 231.407 L 222.623 231.407 L 222.623 231.407 Q 216.055 220.757 200.08 220.757 L 200.08 220.757 L 200.08 220.757 Q 195.11 220.757 189.785 221.29 L 189.785 221.29 L 189.785 221.29 Q 184.46 221.822 179.49 222.532 L 179.49 222.532 L 179.49 257.315 C 173.955 256.089 168.447 254.737 162.97 253.26 C 150.645 249.937 138.503 245.976 126.595 241.394 L 126.595 186.322 L 126.595 186.322 Q 133.34 184.547 142.393 182.595 L 142.393 182.595 L 142.393 182.595 Q 151.445 180.642 161.563 179.045 L 161.563 179.045 L 161.563 179.045 Q 171.68 177.447 182.33 176.56 L 182.33 176.56 L 182.33 176.56 Q 192.98 175.672 203.275 175.672 L 203.275 175.672 L 203.275 175.672 Q 223.51 175.672 236.113 180.82 L 236.113 180.82 L 236.113 180.82 Q 248.715 185.967 256.88 193.067 L 256.88 193.067 L 256.88 193.067 Q 268.24 184.902 282.973 180.287 L 282.973 180.287 L 282.973 180.287 Q 297.705 175.672 310.13 175.672 L 310.13 175.672 L 310.13 175.672 Q 332.495 175.672 346.873 181.885 L 346.873 181.885 L 346.873 181.885 Q 361.25 188.097 369.77 199.457 L 369.77 199.457 L 369.77 199.457 Q 375.671 207.325 379.018 217.237 C 376.862 218.367 374.778 219.63 372.78 221.02 C 371.57 221.84 370.52 222.88 369.69 224.08 C 368.77 225.4 368.25 226.95 368.2 228.56 C 368.16 230.68 369.1 232.7 370.74 234.03 C 371.51 234.65 372.39 235.11 373.34 235.38 C 374.18 235.62 375.05 235.74 375.92 235.73 C 376.35 235.73 376.79 235.7 377.22 235.65 L 377.43 235.63 C 377.44 235.63 377.44 235.62 377.45 235.62 C 379.283 235.398 381.119 235.186 382.957 234.983 Q 383.564 239.27 383.957 243.794 C 377.671 246.11 371.319 248.247 364.91 250.2 C 353.928 253.559 342.804 256.392 331.562 258.709 Q 330.576 240.096 325.218 231.407 L 325.218 231.407 L 325.218 231.407 Q 318.65 220.757 302.675 220.757 L 302.675 220.757 L 302.675 220.757 Q 298.415 220.757 290.783 222.887 L 290.783 222.887 L 290.783 222.887 Q 283.15 225.017 278.18 228.212 L 278.18 228.212 L 278.18 228.212 Q 280.665 236.377 281.375 245.43 L 281.375 245.43 L 281.375 245.43 Q 282.085 254.482 282.085 264.777 L 282.085 264.777 L 282.085 265.434 C 274.715 265.916 267.329 266.164 259.94 266.17 C 249.665 266.164 239.401 265.731 229.171 264.873 Z  M 179.49 262.432 L 179.49 287.839 C 160.964 282.631 143.268 275.556 126.595 266.816 L 126.595 246.744 C 143.553 253.171 161.264 258.448 179.49 262.432 Z  M 179.49 293.03 L 179.49 366.662 L 126.595 366.662 L 126.595 272.441 C 135.009 276.751 143.651 280.638 152.49 284.08 C 161.337 287.519 170.35 290.507 179.49 293.03 Z  M 380.48 222.125 Q 381.035 224.239 381.485 226.437 L 381.485 226.437 L 381.485 226.437 Q 381.849 228.216 382.171 230.04 C 380.123 230.271 378.246 230.494 376.615 230.687 C 372.586 231.18 371.97 227.673 375.6 225.151 C 377.165 224.049 378.796 223.043 380.48 222.125 Z  M 384.333 248.979 Q 384.68 254.91 384.68 261.227 L 384.68 261.227 L 384.68 266.226 C 368.361 275.089 350.348 282.18 331.785 287.414 L 331.785 267.617 L 331.785 267.617 Q 331.785 265.651 331.746 263.773 C 349.393 260.179 367.065 255.26 384.333 248.979 Z  M 384.68 271.896 L 384.68 366.662 L 331.785 366.662 L 331.785 292.603 C 333.457 292.14 335.126 291.662 336.79 291.17 C 343.49 289.19 350.12 286.96 356.66 284.48 C 363.14 282.03 369.51 279.32 375.77 276.36 C 378.77 274.938 381.742 273.449 384.68 271.896 Z " fill-rule="evenodd" fill="rgb(255,255,255)"/></g><path d=" M 407.467 251.819 C 366.403 282.087 306.883 298.235 255.638 298.235 C 183.783 298.235 119.096 271.659 70.157 227.458 C 66.313 223.982 69.758 219.245 74.372 221.952 C 127.186 252.681 192.488 271.167 259.944 271.167 C 305.437 271.167 355.483 261.755 401.499 242.222 C 408.451 239.269 414.265 246.775 407.467 251.819 M 424.538 232.287 C 419.309 225.581 389.842 229.119 376.615 230.687 C 372.585 231.18 371.97 227.673 375.6 225.151 C 399.069 208.633 437.58 213.401 442.071 218.937 C 446.562 224.505 440.902 263.108 418.848 281.533 C 415.464 284.363 412.235 282.856 413.742 279.103 C 418.694 266.738 429.798 239.023 424.538 232.287" fill-rule="evenodd" fill="rgb(255,136,0)"/></g></svg>