<?xml version="1.0" encoding="UTF-8" standalone="no"?><!-- Generator: Gravit.io --><svg xmlns="http://www.w3.org/2000/svg" xmlns:xlink="http://www.w3.org/1999/xlink" style="isolation:isolate" viewBox="0 0 512 512" width="512pt" height="512pt"><defs><clipPath id="_clipPath_ZaFeQSTXi70zXgFziiqJ0CuCYUC60rml"><rect width="512" height="512"/></clipPath></defs><g clip-path="url(#_clipPath_ZaFeQSTXi70zXgFziiqJ0CuCYUC60rml)"><rect width="512" height="512" style="fill:rgb(34,34,34)" fill-opacity="0"/><path d=" M 223.399 308.712 L 223.399 387.289 L 287.72 387.289 L 287.72 308.547 C 277.036 309.604 266.304 310.144 255.562 310.168 C 244.821 310.174 234.088 309.688 223.399 308.712 Z  M 223.399 302.605 L 223.399 269.618 C 235.774 270.641 248.254 271.167 260.796 271.167 C 269.643 271.167 278.632 270.874 287.72 270.285 L 287.72 302.426 C 276.818 303.526 266.046 304.082 255.559 304.082 C 244.698 304.082 233.971 303.583 223.399 302.605 Z  M 223.375 263.514 Q 222.964 235.063 215.413 222.819 L 215.413 222.819 L 215.413 222.819 Q 207.427 209.868 188.001 209.868 L 188.001 209.868 L 188.001 209.868 Q 181.958 209.868 175.483 210.516 L 175.483 210.516 L 175.483 210.516 Q 169.008 211.164 162.964 212.027 L 162.964 212.027 L 162.964 254.323 C 156.233 252.832 149.536 251.188 142.876 249.392 C 127.889 245.351 113.124 240.535 98.644 234.963 L 98.644 167.996 L 98.644 167.996 Q 106.846 165.837 117.853 163.463 L 117.853 163.463 L 117.853 163.463 Q 128.861 161.089 141.164 159.146 L 141.164 159.146 L 141.164 159.146 Q 153.467 157.204 166.417 156.124 L 166.417 156.124 L 166.417 156.124 Q 179.368 155.045 191.887 155.045 L 191.887 155.045 L 191.887 155.045 Q 216.492 155.045 231.817 161.304 L 231.817 161.304 L 231.817 161.304 Q 247.142 167.564 257.07 176.197 L 257.07 176.197 L 257.07 176.197 Q 270.884 166.269 288.799 160.657 L 288.799 160.657 L 288.799 160.657 Q 306.713 155.045 321.822 155.045 L 321.822 155.045 L 321.822 155.045 Q 349.018 155.045 366.501 162.6 L 366.501 162.6 L 366.501 162.6 Q 383.984 170.154 394.345 183.968 L 394.345 183.968 L 394.345 183.968 Q 401.52 193.535 405.59 205.588 C 402.968 206.962 400.433 208.498 398.004 210.188 C 396.533 211.185 395.256 212.45 394.247 213.909 C 393.128 215.514 392.496 217.399 392.435 219.357 C 392.387 221.935 393.53 224.391 395.524 226.008 C 396.46 226.762 397.53 227.322 398.685 227.65 C 399.707 227.942 400.765 228.088 401.823 228.076 C 402.346 228.076 402.881 228.039 403.404 227.978 L 403.659 227.954 C 403.671 227.954 403.671 227.942 403.683 227.942 C 405.912 227.672 408.144 227.414 410.379 227.168 Q 411.118 232.38 411.596 237.881 C 403.952 240.698 396.228 243.297 388.435 245.671 C 375.081 249.755 361.554 253.201 347.884 256.018 Q 346.684 233.384 340.169 222.819 L 340.169 222.819 L 340.169 222.819 Q 332.183 209.868 312.757 209.868 L 312.757 209.868 L 312.757 209.868 Q 307.577 209.868 298.296 212.459 L 298.296 212.459 L 298.296 212.459 Q 289.015 215.049 282.971 218.934 L 282.971 218.934 L 282.971 218.934 Q 285.993 228.862 286.856 239.87 L 286.856 239.87 L 286.856 239.87 Q 287.72 250.878 287.72 263.397 L 287.72 263.397 L 287.72 264.195 C 278.757 264.782 269.777 265.083 260.791 265.091 C 248.296 265.083 235.816 264.557 223.375 263.514 Z  M 162.964 260.546 L 162.964 291.441 C 140.437 285.108 118.918 276.504 98.644 265.876 L 98.644 241.468 C 119.264 249.283 140.801 255.701 162.964 260.546 Z  M 162.964 297.753 L 162.964 387.289 L 98.644 387.289 L 98.644 272.716 C 108.875 277.957 119.384 282.683 130.132 286.869 C 140.89 291.051 151.85 294.684 162.964 297.753 Z  M 407.368 211.531 Q 408.043 214.102 408.59 216.775 L 408.59 216.775 L 408.59 216.775 Q 409.032 218.938 409.424 221.157 C 406.934 221.437 404.651 221.709 402.668 221.944 C 397.768 222.542 397.02 218.278 401.433 215.211 C 403.336 213.872 405.32 212.648 407.368 211.531 Z  M 412.053 244.186 Q 412.475 251.399 412.475 259.08 L 412.475 259.08 L 412.475 265.159 C 392.631 275.936 370.727 284.559 348.155 290.923 L 348.155 266.85 L 348.155 266.85 Q 348.155 264.459 348.107 262.176 C 369.566 257.806 391.055 251.824 412.053 244.186 Z  M 412.475 272.053 L 412.475 387.289 L 348.155 387.289 L 348.155 297.233 C 350.188 296.67 352.217 296.089 354.241 295.491 C 362.388 293.083 370.45 290.371 378.403 287.356 C 386.282 284.376 394.028 281.081 401.64 277.482 C 405.289 275.753 408.902 273.942 412.475 272.053 Z " fill-rule="evenodd" fill="rgb(255,255,255)"/><path d=" M 440.184 247.64 C 390.25 284.445 317.874 304.082 255.559 304.082 C 168.184 304.082 89.525 271.765 30.015 218.016 C 25.34 213.79 29.529 208.03 35.14 211.321 C 99.362 248.687 178.77 271.167 260.796 271.167 C 316.116 271.167 376.972 259.722 432.927 235.97 C 441.381 232.379 448.45 241.506 440.184 247.64 M 460.943 223.889 C 454.584 215.735 418.751 220.036 402.668 221.944 C 397.768 222.542 397.02 218.278 401.434 215.211 C 429.972 195.125 476.802 200.923 482.263 207.656 C 487.724 214.426 480.841 261.367 454.023 283.772 C 449.909 287.213 445.981 285.38 447.814 280.817 C 453.836 265.781 467.339 232.08 460.943 223.889" fill-rule="evenodd" fill="rgb(255,255,255)"/></g></svg>